Coordinates
version=1
nRows=24
nColumns=22
inDegrees=yes

Units are S.I. units (second, meters, Newtons, ...)
If the header above contains a line with 'inDegrees', this indicates whether rotational values are in degrees (yes) or radians (no).

endheader
time	pelvis_tilt	pelvis_list	pelvis_rotation	pelvis_tx	pelvis_ty	pelvis_tz	hip_flexion_r	hip_adduction_r	hip_rotation_r	knee_angle_r	ankle_angle_r	subtalar_angle_r	hip_flexion_l	hip_adduction_l	hip_rotation_l	knee_angle_l	ankle_angle_l	subtalar_angle_l	lumbar_extension	lumbar_bending	lumbar_rotation
      1.90000000	     10.96155401	      1.32425621	     57.72854784	      0.90769625	      0.90662844	      0.81041120	     17.02909634	      3.31889704	     -4.67240193	    -11.87490034	      1.66602275	     13.26757119	    -17.93194033	     -2.55339421	     10.30368841	    -26.74662608	     29.59471678	    -15.01904464	    -15.23264078	      5.60751379	    -16.74370073
      1.91000000	     11.09816483	      1.39270544	     58.50995835	      0.91536105	      0.90613936	      0.80170766	     17.08688865	      3.64097452	     -4.02359286	    -13.39123506	      0.98155550	     12.20495709	    -18.14341771	     -3.05484714	     10.45562661	    -27.78698049	     28.55680943	    -14.30802285	    -15.02428108	      5.90384128	    -16.88767598
      1.92000000	     11.24860140	      1.45783543	     59.28947348	      0.92306342	      0.90593772	      0.79276615	     17.11426681	      3.96908567	     -3.45179198	    -14.95059045	      0.31304714	     11.22400255	    -18.27122511	     -3.58088455	     10.57825822	    -28.94265218	     27.21891798	    -13.47058739	    -14.78806190	      6.22060082	    -17.03152664
      1.93000000	     11.41749937	      1.53372317	     60.06896048	      0.93074890	      0.90603348	      0.78359423	     17.08754675	      4.28800534	     -3.00931979	    -16.51447538	     -0.21345406	     10.37187991	    -18.31172213	     -4.12212003	     10.68875459	    -30.23118484	     25.54166992	    -12.50337401	    -14.54592954	      6.55516306	    -17.16150051
      1.94000000	     11.60339450	      1.63353757	     60.84960660	      0.93837669	      0.90642428	      0.77420151	     16.97657230	      4.58257538	     -2.72699580	    -18.03628672	     -0.51168153	      9.67715305	    -18.26234865	     -4.66719387	     10.79693844	    -31.65848792	     23.49552167	    -11.41388497	    -14.31436584	      6.89981900	    -17.28652696
      1.95000000	     11.79205307	      1.77269300	     61.64029948	      0.94587797	      0.90708690	      0.76464317	     16.76105517	      4.82765170	     -2.61861342	    -19.48024247	     -0.54954306	      9.14648408	    -18.10635003	     -5.19070442	     10.93534477	    -33.23856262	     21.07766883	    -10.21988124	    -14.11249068	      7.23283898	    -17.42445633
      1.96000000	     12.00257549	      1.91464563	     62.43640212	      0.95323997	      0.90795750	      0.75495512	     16.43009164	      5.06430113	     -2.68674074	    -20.76921519	     -0.29327953	      8.72073320	    -17.80725512	     -5.72041172	     11.11795081	    -34.98023417	     18.29978812	     -8.85852788	    -13.92019372	      7.59479929	    -17.49057308
      1.97000000	     12.19103889	      2.07995410	     63.25354755	      0.96038043	      0.90899178	      0.74525878	     15.99449892	      5.24131271	     -2.92546437	    -21.90249303	      0.18988518	      8.39688429	    -17.33420111	     -6.20097521	     11.38849007	    -36.89134809	     15.21190920	     -7.38874831	    -13.75447884	      7.92902243	    -17.56651205
      1.98000000	     12.36008656	      2.23923787	     64.08256481	      0.96730540	      0.91010802	      0.73563972	     15.47473213	      5.38117529	     -3.34252996	    -22.85622610	      0.87267150	      8.14546353	    -16.65476064	     -6.63490557	     11.76185264	    -38.97240556	     11.92861889	     -5.84294525	    -13.60115608	      8.24659410	    -17.59742228
      1.99000000	     12.50856560	      2.37615558	     64.92337377	      0.97397011	      0.91124804	      0.72618850	     14.88424192	      5.49940740	     -3.89091959	    -23.60562869	      1.67700018	      7.92905611	    -15.74265249	     -7.01983916	     12.22703408	    -41.22226217	      8.61237494	     -4.22700146	    -13.45711462	      8.55657428	    -17.58668628
      2.00000000	     12.63272856	      2.47763119	     65.77437648	      0.98035134	      0.91234448	      0.71696712	     14.24740641	      5.60001797	     -4.56518501	    -24.15577263	      2.56032967	      7.74221210	    -14.58132872	     -7.34927503	     12.76523993	    -43.63371411	      5.47813252	     -2.63404068	    -13.31795469	      8.86136747	    -17.51697003
      2.01000000	     12.74364043	      2.54116622	     66.62451212	      0.98646022	      0.91336733	      0.70804654	     13.57794748	      5.70452073	     -5.33182123	    -24.52108138	      3.45617835	      7.56973625	    -13.18454343	     -7.62683667	     13.34855775	    -46.18372178	      2.76740981	     -1.16270614	    -13.19700083	      9.16315075	    -17.38050391
      2.02000000	     12.84205464	      2.55905178	     67.48165692	      0.99226941	      0.91427523	      0.69942498	     12.90096162	      5.81280435	     -6.20322189	    -24.72857515	      4.34070354	      7.42038012	    -11.55284830	     -7.86183096	     13.93365915	    -48.84329300	      0.68976489	      0.02692378	    -13.08422568	      9.47047962	    -17.17036500
      2.03000000	     12.94790529	      2.53110770	     68.31903439	      0.99787033	      0.91511214	      0.69110058	     12.18871325	      5.98285329	     -7.01701540	    -24.73146399	      5.18320856	      7.24221916	     -9.73555513	     -8.07737385	     14.46860535	    -51.53806969	     -0.66861166	      0.97378671	    -12.98234829	      9.78937495	    -16.85929530
      2.04000000	     13.06639470	      2.48432196	     69.15150281	      1.00322756	      0.91587920	      0.68306276	     11.46818886	      6.18778934	     -7.86719636	    -24.63332725	      5.93668002	      7.08645196	     -7.76660760	     -8.29616490	     14.89586760	    -54.22822719	     -1.20194741	      1.45962869	    -12.91885924	     10.11658555	    -16.48907698
      2.05000000	     13.19054968	      2.41687524	     69.94940637	      1.00845104	      0.91662469	      0.67527133	     10.73158535	      6.45345312	     -8.60470353	    -24.41050130	      6.62206791	      6.90508713	     -5.68740671	     -8.52321980	     15.17985577	    -56.82870443	     -1.00782962	      1.55789055	    -12.87559451	     10.43208104	    -16.03095398
      2.06000000	     13.31380478	      2.33995247	     70.70556818	      1.01357783	      0.91737969	      0.66768000	      9.99254248	      6.76470192	     -9.23682798	    -24.10988399	      7.21688353	      6.69868087	     -3.53485850	     -8.76733186	     15.29293098	    -59.28019872	     -0.16596796	      1.16905087	    -12.85090071	     10.72042450	    -15.49985174
      2.07000000	     13.42981307	      2.28171854	     71.39988552	      1.01865703	      0.91821578	      0.66021935	      9.22608665	      7.10784742	     -9.72958845	    -23.74607277	      7.73771820	      6.46832927	     -1.38012850	     -9.02061287	     15.22012611	    -61.51601981	      1.20685386	      0.18732200	    -12.86211402	     10.96088479	    -14.89405148
      2.08000000	     13.51339712	      2.28570073	     72.01227116	      1.02371329	      0.91923601	      0.65280732	      8.38326218	      7.44166037	    -10.05250459	    -23.31232407	      8.21422766	      6.22812922	      0.68398325	     -9.23701669	     14.96837123	    -63.46642806	      3.01509997	     -1.41250105	    -12.93754284	     11.10943006	    -14.22160959
      2.09000000	     13.56630900	      2.33627688	     72.54310457	      1.02873034	      0.92041110	      0.64542179	      7.49952341	      7.75567646	    -10.26220951	    -22.85456861	      8.57344180	      5.99238294	      2.65831109	     -9.42788775	     14.54200572	    -65.12489150	      5.10918158	     -3.51120656	    -13.05878333	     11.18147070	    -13.48989048
      2.10000000	     13.56663449	      2.44897164	     72.97923460	      1.03370457	      0.92176943	      0.63801699	      6.55197171	      8.01574850	    -10.34958218	    -22.36251230	      8.87129287	      5.74764008	      4.49650855	     -9.55475141	     13.94854904	    -66.46204113	      7.39091377	     -6.08990021	    -13.23220034	     11.15323423	    -12.71037702
      2.11000000	     13.51253987	      2.61061269	     73.31529851	      1.03863709	      0.92327938	      0.63057953	      5.55853834	      8.21197707	    -10.35067544	    -21.85196148	      9.08722250	      5.48892645	      6.19383714	     -9.61908559	     13.18531124	    -67.46968069	      9.74672012	     -9.02166088	    -13.43989261	     11.02861006	    -11.87646399
      2.12000000	     13.38731795	      2.83908600	     73.57277073	      1.04346082	      0.92493410	      0.62309365	      4.49578684	      8.31491224	    -10.26605912	    -21.31329785	      9.30009526	      5.21946088	      7.72397511	     -9.57409243	     12.30082644	    -68.14126407	     12.06504174	    -12.11673572	    -13.69632770	     10.79413140	    -11.04702646
      2.13000000	     13.21373626	      3.10164299	     73.75156970	      1.04819695	      0.92665678	      0.61556886	      3.39869218	      8.34701568	    -10.14831435	    -20.75950942	      9.45979684	      4.93085744	      9.11533713	     -9.46743882	     11.27961740	    -68.48848657	     14.22790817	    -15.17785849	    -13.97157787	     10.48716191	    -10.19962308
